<svg xmlns="http://www.w3.org/2000/svg" viewBox="0 0 64 64" width="64" height="64">
  <defs>
    <linearGradient id="g" x1="0%" y1="0%" x2="100%" y2="100%">
      <stop offset="0%" stop-color="#6366f1"/>
      <stop offset="100%" stop-color="#8b5cf6"/>
    </linearGradient>
  </defs>
  <!-- Pins top -->
  <rect x="18" y="4" width="4" height="8" rx="1" fill="#94a3b8"/>
  <rect x="30" y="4" width="4" height="8" rx="1" fill="#94a3b8"/>
  <rect x="42" y="4" width="4" height="8" rx="1" fill="#94a3b8"/>
  <!-- Pins bottom -->
  <rect x="18" y="52" width="4" height="8" rx="1" fill="#94a3b8"/>
  <rect x="30" y="52" width="4" height="8" rx="1" fill="#94a3b8"/>
  <rect x="42" y="52" width="4" height="8" rx="1" fill="#94a3b8"/>
  <!-- Pins left -->
  <rect x="4" y="18" width="8" height="4" rx="1" fill="#94a3b8"/>
  <rect x="4" y="30" width="8" height="4" rx="1" fill="#94a3b8"/>
  <rect x="4" y="42" width="8" height="4" rx="1" fill="#94a3b8"/>
  <!-- Pins right -->
  <rect x="52" y="18" width="8" height="4" rx="1" fill="#94a3b8"/>
  <rect x="52" y="30" width="8" height="4" rx="1" fill="#94a3b8"/>
  <rect x="52" y="42" width="8" height="4" rx="1" fill="#94a3b8"/>
  <!-- CPU body -->
  <rect x="14" y="14" width="36" height="36" rx="4" fill="url(#g)"/>
  <!-- Inner die -->
  <rect x="20" y="20" width="24" height="24" rx="2" fill="none" stroke="rgba(255,255,255,0.3)" stroke-width="1.5"/>
  <!-- JR initials -->
  <text x="32" y="37" text-anchor="middle" font-family="Arial, sans-serif" font-weight="700" font-size="14" fill="white">JR</text>
</svg>
